<?xml version="1.0" standalone="no"?>
<!DOCTYPE svg PUBLIC "-//W3C//DTD SVG 20010904//EN"
 "http://www.w3.org/TR/2001/REC-SVG-20010904/DTD/svg10.dtd">
<svg version="1.0" xmlns="http://www.w3.org/2000/svg"
 width="700.000000pt" height="700.000000pt" viewBox="0 0 700.000000 700.000000"
 preserveAspectRatio="xMidYMid meet">
<metadata>
Created by potrace 1.11, written by Peter Selinger 2001-2013
</metadata>
<g transform="translate(0.000000,700.000000) scale(0.100000,-0.100000)"
fill="#000000" stroke="none">
<path d="M2790 4826 c0 -24 -6 -48 -13 -54 -27 -23 -133 -42 -229 -42 l-98 0
0 -41 0 -41 -572 5 c-385 2 -666 10 -856 22 -301 18 -312 17 -312 -29 0 -33
124 -190 245 -311 275 -274 607 -461 980 -550 175 -42 290 -55 545 -61 135 -3
268 -10 295 -16 174 -37 330 -213 343 -387 8 -118 -43 -236 -131 -301 l-41
-30 827 0 826 0 -48 45 c-58 54 -114 157 -131 239 -24 116 7 265 85 413 179
339 553 571 1110 686 325 68 539 118 572 134 42 20 63 59 63 116 0 31 6 49 20
62 17 15 20 31 20 102 l0 83 -1750 0 -1750 0 0 -44z"/>
<path d="M2608 2884 l-76 -24 -124 -142 c-188 -216 -168 -170 -168 -395 l0
-193 348 0 c222 0 361 4 387 11 28 8 59 31 105 79 141 144 338 191 773 184
333 -5 488 -52 618 -184 52 -53 76 -69 112 -78 30 -8 162 -12 391 -12 l346 0
0 179 c0 99 -4 191 -9 204 -7 19 -140 178 -287 346 -1 1 -48 14 -104 27 l-102
24 -1066 -1 -1067 -1 -77 -24z"/>
</g>
</svg>
