<?xml version="1.0" standalone="no"?>
<!DOCTYPE svg PUBLIC "-//W3C//DTD SVG 20010904//EN"
 "http://www.w3.org/TR/2001/REC-SVG-20010904/DTD/svg10.dtd">
<svg version="1.0" xmlns="http://www.w3.org/2000/svg"
 width="600.000000pt" height="600.000000pt" viewBox="0 0 600.000000 600.000000"
 preserveAspectRatio="xMidYMid meet">
<metadata>
Created by potrace 1.11, written by Peter Selinger 2001-2013
</metadata>
<g transform="translate(0.000000,600.000000) scale(0.100000,-0.100000)"
fill="#000000" stroke="none">
<path d="M2799 5996 c-2 -2 -38 -6 -79 -10 -41 -3 -86 -8 -100 -10 -14 -3 -43
-7 -65 -10 -79 -11 -112 -18 -220 -42 -60 -14 -119 -27 -130 -29 -12 -3 -48
-14 -80 -26 -33 -11 -67 -22 -75 -24 -8 -2 -42 -14 -75 -26 -33 -13 -63 -23
-67 -24 -3 0 -10 -3 -14 -7 -4 -5 -16 -8 -26 -8 -10 0 -18 -4 -18 -8 0 -5 -6
-9 -12 -9 -33 -1 -408 -195 -416 -215 -2 -4 -10 -8 -18 -8 -8 0 -14 -4 -14
-10 0 -5 -4 -10 -9 -10 -12 0 -105 -61 -109 -72 -2 -4 -8 -8 -14 -8 -5 0 -16
-6 -23 -12 -22 -20 -37 -32 -75 -58 -19 -13 -37 -27 -40 -30 -3 -3 -39 -34
-80 -70 -102 -89 -246 -231 -242 -242 1 -4 -5 -8 -13 -8 -8 0 -15 -3 -15 -7 0
-5 -15 -24 -33 -43 -18 -19 -48 -55 -67 -80 -19 -25 -39 -50 -45 -57 -20 -24
-30 -39 -74 -103 -25 -36 -48 -67 -51 -70 -4 -3 -21 -31 -39 -62 -18 -32 -37
-60 -42 -63 -5 -4 -7 -11 -4 -16 4 -5 2 -9 -3 -9 -5 0 -22 -27 -38 -60 -16
-33 -32 -60 -35 -60 -3 0 -12 -18 -19 -40 -7 -22 -17 -40 -22 -40 -4 0 -8 -6
-8 -14 0 -8 -15 -46 -34 -85 -18 -38 -37 -80 -41 -93 -4 -13 -8 -25 -10 -28
-5 -13 -15 -39 -30 -85 -10 -27 -21 -59 -26 -70 -4 -11 -14 -40 -20 -65 -7
-25 -14 -49 -15 -55 -7 -20 -44 -171 -48 -190 -52 -272 -61 -357 -60 -625 0
-189 9 -374 19 -391 2 -3 6 -25 9 -50 8 -63 24 -153 41 -227 3 -12 7 -32 10
-43 2 -12 12 -47 21 -78 9 -31 18 -64 19 -73 2 -9 9 -26 15 -37 6 -12 8 -21 4
-21 -3 0 -2 -6 4 -12 6 -7 10 -17 10 -21 -1 -11 43 -130 81 -222 31 -75 124
-256 173 -338 32 -55 58 -103 58 -108 0 -5 4 -9 8 -9 5 0 15 -12 23 -27 8 -16
16 -30 19 -33 3 -3 27 -35 53 -72 26 -36 53 -72 59 -80 7 -7 33 -39 57 -71 72
-95 304 -325 411 -407 25 -19 47 -38 50 -41 3 -4 50 -38 105 -77 55 -39 105
-76 112 -82 7 -5 15 -10 19 -10 3 0 18 -9 34 -20 69 -49 312 -172 455 -230 44
-17 88 -36 97 -41 10 -5 26 -9 36 -9 10 0 22 -4 28 -9 9 -8 241 -76 294 -86
14 -3 36 -7 50 -10 66 -13 95 -19 100 -20 3 -1 32 -5 65 -9 33 -5 68 -10 79
-12 143 -26 630 -25 767 1 13 3 41 7 64 10 22 3 51 8 65 10 14 3 39 7 57 10
17 3 59 12 92 21 34 8 70 17 81 20 11 2 30 6 42 9 12 2 57 16 100 31 42 14 81
26 85 26 5 1 39 14 77 30 38 15 75 28 82 28 8 0 14 5 14 10 0 6 6 10 14 10 20
0 110 41 118 54 4 6 8 8 8 3 0 -9 122 52 131 65 3 5 8 8 10 7 9 -7 290 166
297 183 2 4 8 8 13 8 6 0 15 5 22 10 55 47 74 61 90 66 9 3 15 10 12 15 -4 5
-2 9 4 9 24 0 336 294 396 372 6 7 34 41 63 74 28 34 52 67 52 73 0 6 3 11 8
11 4 0 18 17 32 38 14 20 42 59 62 87 21 27 38 56 38 63 0 6 5 12 10 12 6 0
10 6 10 14 0 8 3 16 8 18 9 4 89 141 97 168 4 11 11 20 16 20 5 0 9 6 9 13 0
6 13 37 30 68 16 31 26 59 23 63 -3 3 -1 6 5 6 7 0 11 3 10 8 0 4 8 27 19 52
18 40 33 75 38 90 1 3 4 12 8 20 45 111 127 400 142 500 4 24 8 47 10 50 1 3
6 30 9 61 4 31 9 67 11 79 27 138 27 604 1 760 -3 14 -7 43 -10 65 -9 64 -24
146 -36 200 -6 28 -14 60 -16 72 -2 12 -9 34 -14 48 -5 14 -7 25 -4 25 2 0 0
8 -5 18 -6 11 -12 30 -15 43 -5 22 -59 184 -73 219 -3 8 -7 17 -8 20 -1 3 -7
18 -13 33 -7 16 -12 30 -12 33 0 13 -121 253 -170 339 -67 115 -147 237 -164
247 -6 4 -6 8 -1 8 7 0 7 3 0 8 -6 4 -35 40 -64 80 -30 39 -59 72 -65 72 -5 0
-7 2 -4 5 3 4 -11 25 -31 48 -55 63 -282 289 -319 317 -18 14 -43 33 -55 44
-85 72 -306 226 -325 226 -7 0 -12 4 -12 8 0 5 -21 20 -47 33 -27 13 -50 26
-53 29 -10 11 -214 110 -227 110 -7 0 -13 5 -13 10 0 6 -9 10 -19 10 -11 0
-22 4 -26 10 -3 5 -20 14 -38 19 -18 5 -77 26 -132 46 -55 20 -111 39 -124 41
-14 3 -28 7 -33 10 -29 18 -291 74 -438 94 -41 6 -88 13 -105 16 -34 6 -501
15 -506 10z"/>
</g>
</svg>
